<svg xmlns="http://www.w3.org/2000/svg" width="308" height="346" viewBox="0 0 308 346">
<rect width="308" height="346" fill="#0d1117"/>
<rect x="66" y="0" width="22" height="22" fill="#1b4d2e"/>
<rect x="88" y="0" width="22" height="22" fill="#1b4d2e"/>
<rect x="198" y="0" width="22" height="22" fill="#1b4d2e"/>
<rect x="220" y="0" width="22" height="22" fill="#1b4d2e"/>
<rect x="44" y="22" width="22" height="22" fill="#1b4d2e"/>
<rect x="66" y="22" width="22" height="22" fill="#4caf6b"/>
<rect x="88" y="22" width="22" height="22" fill="#4caf6b"/>
<rect x="110" y="22" width="22" height="22" fill="#1b4d2e"/>
<rect x="176" y="22" width="22" height="22" fill="#1b4d2e"/>
<rect x="198" y="22" width="22" height="22" fill="#4caf6b"/>
<rect x="220" y="22" width="22" height="22" fill="#4caf6b"/>
<rect x="242" y="22" width="22" height="22" fill="#1b4d2e"/>
<rect x="22" y="44" width="22" height="22" fill="#1b4d2e"/>
<rect x="44" y="44" width="22" height="22" fill="#4caf6b"/>
<rect x="66" y="44" width="22" height="22" fill="#4caf6b"/>
<rect x="88" y="44" width="22" height="22" fill="#4caf6b"/>
<rect x="110" y="44" width="22" height="22" fill="#4caf6b"/>
<rect x="132" y="44" width="22" height="22" fill="#4caf6b"/>
<rect x="154" y="44" width="22" height="22" fill="#4caf6b"/>
<rect x="176" y="44" width="22" height="22" fill="#4caf6b"/>
<rect x="198" y="44" width="22" height="22" fill="#4caf6b"/>
<rect x="220" y="44" width="22" height="22" fill="#4caf6b"/>
<rect x="242" y="44" width="22" height="22" fill="#4caf6b"/>
<rect x="264" y="44" width="22" height="22" fill="#1b4d2e"/>
<rect x="0" y="66" width="22" height="22" fill="#1b4d2e"/>
<rect x="22" y="66" width="22" height="22" fill="#4caf6b"/>
<rect x="44" y="66" width="22" height="22" fill="#4caf6b"/>
<rect x="66" y="66" width="22" height="22" fill="#4caf6b"/>
<rect x="88" y="66" width="22" height="22" fill="#1a1a1a"/>
<rect x="110" y="66" width="22" height="22" fill="#4caf6b"/>
<rect x="132" y="66" width="22" height="22" fill="#4caf6b"/>
<rect x="154" y="66" width="22" height="22" fill="#4caf6b"/>
<rect x="176" y="66" width="22" height="22" fill="#4caf6b"/>
<rect x="198" y="66" width="22" height="22" fill="#1a1a1a"/>
<rect x="220" y="66" width="22" height="22" fill="#4caf6b"/>
<rect x="242" y="66" width="22" height="22" fill="#4caf6b"/>
<rect x="264" y="66" width="22" height="22" fill="#4caf6b"/>
<rect x="286" y="66" width="22" height="22" fill="#1b4d2e"/>
<rect x="0" y="88" width="22" height="22" fill="#1b4d2e"/>
<rect x="22" y="88" width="22" height="22" fill="#4caf6b"/>
<rect x="44" y="88" width="22" height="22" fill="#4caf6b"/>
<rect x="66" y="88" width="22" height="22" fill="#4caf6b"/>
<rect x="88" y="88" width="22" height="22" fill="#4caf6b"/>
<rect x="110" y="88" width="22" height="22" fill="#5c4033"/>
<rect x="132" y="88" width="22" height="22" fill="#5c4033"/>
<rect x="154" y="88" width="22" height="22" fill="#5c4033"/>
<rect x="176" y="88" width="22" height="22" fill="#5c4033"/>
<rect x="198" y="88" width="22" height="22" fill="#4caf6b"/>
<rect x="220" y="88" width="22" height="22" fill="#4caf6b"/>
<rect x="242" y="88" width="22" height="22" fill="#4caf6b"/>
<rect x="264" y="88" width="22" height="22" fill="#4caf6b"/>
<rect x="286" y="88" width="22" height="22" fill="#1b4d2e"/>
<rect x="0" y="110" width="22" height="22" fill="#8a6bb3"/>
<rect x="22" y="110" width="22" height="22" fill="#1b4d2e"/>
<rect x="44" y="110" width="22" height="22" fill="#4caf6b"/>
<rect x="66" y="110" width="22" height="22" fill="#4caf6b"/>
<rect x="88" y="110" width="22" height="22" fill="#4caf6b"/>
<rect x="110" y="110" width="22" height="22" fill="#4caf6b"/>
<rect x="132" y="110" width="22" height="22" fill="#4caf6b"/>
<rect x="154" y="110" width="22" height="22" fill="#4caf6b"/>
<rect x="176" y="110" width="22" height="22" fill="#4caf6b"/>
<rect x="198" y="110" width="22" height="22" fill="#4caf6b"/>
<rect x="220" y="110" width="22" height="22" fill="#4caf6b"/>
<rect x="242" y="110" width="22" height="22" fill="#4caf6b"/>
<rect x="264" y="110" width="22" height="22" fill="#1b4d2e"/>
<rect x="286" y="110" width="22" height="22" fill="#8a6bb3"/>
<rect x="0" y="132" width="22" height="22" fill="#8a6bb3"/>
<rect x="22" y="132" width="22" height="22" fill="#8a6bb3"/>
<rect x="44" y="132" width="22" height="22" fill="#1b4d2e"/>
<rect x="66" y="132" width="22" height="22" fill="#4caf6b"/>
<rect x="88" y="132" width="22" height="22" fill="#4caf6b"/>
<rect x="110" y="132" width="22" height="22" fill="#4caf6b"/>
<rect x="132" y="132" width="22" height="22" fill="#4caf6b"/>
<rect x="154" y="132" width="22" height="22" fill="#4caf6b"/>
<rect x="176" y="132" width="22" height="22" fill="#4caf6b"/>
<rect x="198" y="132" width="22" height="22" fill="#4caf6b"/>
<rect x="220" y="132" width="22" height="22" fill="#4caf6b"/>
<rect x="242" y="132" width="22" height="22" fill="#1b4d2e"/>
<rect x="264" y="132" width="22" height="22" fill="#8a6bb3"/>
<rect x="286" y="132" width="22" height="22" fill="#8a6bb3"/>
<rect x="0" y="154" width="22" height="22" fill="#8a6bb3"/>
<rect x="22" y="154" width="22" height="22" fill="#8a6bb3"/>
<rect x="44" y="154" width="22" height="22" fill="#1b4d2e"/>
<rect x="66" y="154" width="22" height="22" fill="#4caf6b"/>
<rect x="88" y="154" width="22" height="22" fill="#4caf6b"/>
<rect x="110" y="154" width="22" height="22" fill="#cfe8b0"/>
<rect x="132" y="154" width="22" height="22" fill="#cfe8b0"/>
<rect x="154" y="154" width="22" height="22" fill="#cfe8b0"/>
<rect x="176" y="154" width="22" height="22" fill="#cfe8b0"/>
<rect x="198" y="154" width="22" height="22" fill="#4caf6b"/>
<rect x="220" y="154" width="22" height="22" fill="#4caf6b"/>
<rect x="242" y="154" width="22" height="22" fill="#1b4d2e"/>
<rect x="264" y="154" width="22" height="22" fill="#8a6bb3"/>
<rect x="286" y="154" width="22" height="22" fill="#8a6bb3"/>
<rect x="0" y="176" width="22" height="22" fill="#8a6bb3"/>
<rect x="22" y="176" width="22" height="22" fill="#1b4d2e"/>
<rect x="44" y="176" width="22" height="22" fill="#4caf6b"/>
<rect x="66" y="176" width="22" height="22" fill="#4caf6b"/>
<rect x="88" y="176" width="22" height="22" fill="#4caf6b"/>
<rect x="110" y="176" width="22" height="22" fill="#4caf6b"/>
<rect x="132" y="176" width="22" height="22" fill="#4caf6b"/>
<rect x="154" y="176" width="22" height="22" fill="#4caf6b"/>
<rect x="176" y="176" width="22" height="22" fill="#4caf6b"/>
<rect x="198" y="176" width="22" height="22" fill="#4caf6b"/>
<rect x="220" y="176" width="22" height="22" fill="#4caf6b"/>
<rect x="242" y="176" width="22" height="22" fill="#4caf6b"/>
<rect x="264" y="176" width="22" height="22" fill="#1b4d2e"/>
<rect x="286" y="176" width="22" height="22" fill="#8a6bb3"/>
<rect x="22" y="198" width="22" height="22" fill="#1b4d2e"/>
<rect x="44" y="198" width="22" height="22" fill="#4caf6b"/>
<rect x="66" y="198" width="22" height="22" fill="#4caf6b"/>
<rect x="88" y="198" width="22" height="22" fill="#4caf6b"/>
<rect x="110" y="198" width="22" height="22" fill="#4caf6b"/>
<rect x="132" y="198" width="22" height="22" fill="#4caf6b"/>
<rect x="154" y="198" width="22" height="22" fill="#4caf6b"/>
<rect x="176" y="198" width="22" height="22" fill="#4caf6b"/>
<rect x="198" y="198" width="22" height="22" fill="#4caf6b"/>
<rect x="220" y="198" width="22" height="22" fill="#4caf6b"/>
<rect x="242" y="198" width="22" height="22" fill="#4caf6b"/>
<rect x="264" y="198" width="22" height="22" fill="#1b4d2e"/>
<rect x="44" y="220" width="22" height="22" fill="#1b4d2e"/>
<rect x="66" y="220" width="22" height="22" fill="#4caf6b"/>
<rect x="88" y="220" width="22" height="22" fill="#4caf6b"/>
<rect x="110" y="220" width="22" height="22" fill="#4caf6b"/>
<rect x="132" y="220" width="22" height="22" fill="#4caf6b"/>
<rect x="154" y="220" width="22" height="22" fill="#4caf6b"/>
<rect x="176" y="220" width="22" height="22" fill="#4caf6b"/>
<rect x="198" y="220" width="22" height="22" fill="#4caf6b"/>
<rect x="220" y="220" width="22" height="22" fill="#4caf6b"/>
<rect x="242" y="220" width="22" height="22" fill="#1b4d2e"/>
<rect x="264" y="220" width="22" height="22" fill="#1b4d2e"/>
<rect x="88" y="242" width="22" height="22" fill="#1b4d2e"/>
<rect x="110" y="242" width="22" height="22" fill="#4caf6b"/>
<rect x="132" y="242" width="22" height="22" fill="#4caf6b"/>
<rect x="154" y="242" width="22" height="22" fill="#4caf6b"/>
<rect x="176" y="242" width="22" height="22" fill="#4caf6b"/>
<rect x="198" y="242" width="22" height="22" fill="#1b4d2e"/>
<rect x="220" y="242" width="22" height="22" fill="#1b4d2e"/>
<rect x="242" y="242" width="22" height="22" fill="#1b4d2e"/>
<rect x="132" y="264" width="22" height="22" fill="#1b4d2e"/>
<rect x="154" y="264" width="22" height="22" fill="#1b4d2e"/>
<rect x="176" y="264" width="22" height="22" fill="#1b4d2e"/>
<rect x="198" y="264" width="22" height="22" fill="#1b4d2e"/>
<text x="154" y="311" fill="#c9d1d9" font-family="monospace" font-size="16" text-anchor="middle">Santai aja hari ini</text>
<text x="154" y="333" fill="#8b949e" font-family="monospace" font-size="13" text-anchor="middle">Streak: 1 hari</text>
</svg>